<svg style="fill:#ffffff;" height="746.66665pt" viewBox="-23 -23 746.66665 746.66665" width="746.66665pt" xmlns="http://www.w3.org/2000/svg"><path d="m398.5 361h200v75h-200zm0 0"/><path d="m36 698.5h475.320312c-8.269531-10.75-12.773437-23.929688-12.820312-37.5v-37.5h-500v37.5c0 20.707031 16.792969 37.5 37.5 37.5zm0 0"/><path d="m398.5 261h200v75h-200zm0 0"/><path d="m598.5 561h-500v37.5h412.5c6.90625 0 12.5 5.59375 12.5 12.5v50c0 20.707031 16.792969 37.5 37.5 37.5s37.5-16.792969 37.5-37.5zm0 0"/><path d="m661-1.5c-20.707031 0-37.5 16.792969-37.5 37.5v37.5h75v-37.5c0-20.707031-16.792969-37.5-37.5-37.5zm0 0"/><path d="m98.5 136h500v-100c.046875-13.570312 4.550781-26.75 12.820312-37.5h-475.320312c-20.707031 0-37.5 16.792969-37.5 37.5zm0 0"/><path d="m698.5 523.5v-350c0-6.90625-5.59375-12.5-12.5-12.5h-675c-6.90625 0-12.5 5.59375-12.5 12.5v350c0 6.90625 5.59375 12.5 12.5 12.5h675c6.90625 0 12.5-5.59375 12.5-12.5zm-587.5-287.5h150v25h-150zm-37.5 0h25v25h-25zm50 225h-50v-25h50zm225 0h-212.5v-25h212.5zm0-50h-275v-25h275zm0-50h-275v-25h275zm0-50h-275v-25h275zm0-50h-75v-25h75zm275 187.5c0 6.90625-5.59375 12.5-12.5 12.5h-225c-6.90625 0-12.5-5.59375-12.5-12.5v-200c0-6.90625 5.59375-12.5 12.5-12.5h225c6.90625 0 12.5 5.59375 12.5 12.5zm0 0"/></svg>