<svg width="20" height="20" viewBox="0 0 20 20" fill="none" xmlns="http://www.w3.org/2000/svg" style="fill:#ffffff;">
<g clip-path="url(#clip0)">
<path d="M10.3575 19.9882C11.8869 19.7709 13.2276 18.1746 14.0713 15.8172C12.8517 15.5441 11.6071 15.3975 10.3575 15.3801V19.9882Z" fill="black"/>
<path d="M12.8009 19.6133C12.8913 19.5871 12.9813 19.5607 13.0707 19.5318C13.1461 19.5075 13.2205 19.4813 13.2948 19.4553C13.3828 19.4249 13.4704 19.3937 13.5576 19.3605C13.632 19.3323 13.7056 19.3023 13.7795 19.2722C13.8646 19.2365 13.9496 19.2009 14.0338 19.1651C14.1072 19.1328 14.1802 19.0989 14.2531 19.0649C14.3357 19.026 14.4179 18.9864 14.4994 18.9452C14.571 18.9087 14.6423 18.8715 14.7139 18.8333C14.794 18.7904 14.8736 18.7465 14.9527 18.7015C15.0242 18.661 15.0932 18.6204 15.1628 18.5785C15.2403 18.5308 15.3174 18.4832 15.394 18.4355C15.4626 18.3919 15.531 18.3476 15.5986 18.3018C15.674 18.2511 15.7483 18.1982 15.8223 18.1453C15.8888 18.0977 15.955 18.0502 16.0199 18.0024C16.0915 17.9472 16.1648 17.8901 16.2365 17.8329C16.3002 17.7821 16.3637 17.7317 16.4264 17.6795C16.4978 17.6201 16.5662 17.5587 16.6355 17.4973C16.6962 17.4433 16.7573 17.3899 16.8166 17.3346C16.8849 17.2709 16.9514 17.2049 17.0179 17.1395C17.0755 17.0826 17.1338 17.0266 17.1901 16.9683C17.2006 16.9574 17.2105 16.9458 17.2214 16.9346C16.4417 16.5319 15.6206 16.2159 14.7722 15.9921C14.331 17.3992 13.5458 18.6743 12.4878 19.7016C12.5167 19.6941 12.5457 19.688 12.5747 19.6805C12.6511 19.659 12.7262 19.6354 12.8009 19.6133Z" fill="black"/>
<path d="M20 10.3656H15.7143C15.6981 12.039 15.4553 13.7025 14.9926 15.3108C15.9361 15.5628 16.8466 15.9251 17.7053 16.3902C19.1152 14.691 19.9222 12.5724 20 10.3656Z" fill="black"/>
<path d="M10.3575 9.65077H14.9994C14.9813 8.03654 14.7444 6.43227 14.2957 4.88157C13.0032 5.17635 11.683 5.33378 10.3575 5.35123V9.65077Z" fill="black"/>
<path d="M10.3575 0.0282593V4.63636C11.6071 4.61874 12.8517 4.47231 14.0713 4.19917C13.2276 1.8418 11.8869 0.245549 10.3575 0.0282593Z" fill="black"/>
<path d="M10.3575 14.6652C11.683 14.6828 13.0032 14.8402 14.2957 15.135C14.7444 13.5843 14.9813 11.9799 14.9994 10.3656H10.3575V14.6652Z" fill="black"/>
<path d="M17.7053 3.62618C16.8466 4.0913 15.9361 4.45362 14.9926 4.70564C15.4553 6.31393 15.6981 7.97738 15.7143 9.65077H20C19.922 7.44419 19.115 5.32557 17.7053 3.62618Z" fill="black"/>
<path d="M17.2224 3.08392C17.2119 3.07327 17.202 3.06175 17.1917 3.05076C17.1351 2.99246 17.0765 2.93627 17.0189 2.87954C16.9526 2.8141 16.8864 2.74795 16.818 2.68442C16.7588 2.62927 16.6976 2.57708 16.6368 2.52211C16.5676 2.46067 16.4983 2.39871 16.4271 2.33938C16.3653 2.28719 16.3019 2.23727 16.2391 2.18719C16.1675 2.12924 16.0942 2.07165 16.0206 2.01632C15.956 1.96763 15.8906 1.9205 15.8248 1.87338C15.7501 1.81963 15.675 1.76605 15.5989 1.71491C15.5321 1.66988 15.4642 1.6259 15.3963 1.58279C15.319 1.53305 15.2418 1.48435 15.1631 1.43723C15.0942 1.39587 15.0245 1.35503 14.9547 1.31541C14.8748 1.26968 14.7947 1.22535 14.7139 1.18207C14.6423 1.14629 14.5709 1.10737 14.4994 1.07159C14.4172 1.03005 14.3343 0.990087 14.2493 0.950818C14.1777 0.916785 14.1051 0.883624 14.0315 0.851336C13.9468 0.813812 13.8613 0.779953 13.7759 0.744175C13.7023 0.714156 13.629 0.684486 13.5546 0.656212C13.4679 0.623051 13.3799 0.591985 13.292 0.561617C13.2176 0.535438 13.1433 0.509433 13.0679 0.484998C12.9785 0.456027 12.8892 0.429673 12.7974 0.403144C12.723 0.381328 12.6483 0.359163 12.5731 0.339266C12.5443 0.331412 12.515 0.325304 12.486 0.317799C13.544 1.34508 14.329 2.62002 14.7704 4.02725C15.6197 3.8035 16.4421 3.48726 17.2224 3.08392Z" fill="black"/>
<path d="M0 9.65077H4.28575C4.30198 7.97738 4.54475 6.31393 5.00725 4.70564C4.06392 4.4538 3.1534 4.09148 2.29471 3.62618C0.884865 5.3254 0.0778402 7.44419 0 9.65077Z" fill="black"/>
<path d="M9.64259 19.9882V15.3801C8.39296 15.3977 7.14839 15.5441 5.92877 15.8172C6.77227 18.1746 8.11318 19.7709 9.64259 19.9882Z" fill="black"/>
<path d="M9.64256 10.3656H5.00061C5.01876 11.9799 5.25542 13.5843 5.70431 15.135C6.99687 14.8401 8.31684 14.6826 9.64256 14.6652V10.3656Z" fill="black"/>
<path d="M9.64259 0.0282593C8.11318 0.245549 6.77227 1.8418 5.92877 4.19917C7.14839 4.47248 8.39296 4.61891 9.64259 4.63636V0.0282593Z" fill="black"/>
<path d="M9.64256 5.35123C8.31701 5.33378 6.99687 5.17635 5.70431 4.88157C5.25542 6.43227 5.01876 8.03654 5.00061 9.65077H9.64256V5.35123Z" fill="black"/>
<path d="M7.51124 0.317454C7.48227 0.324959 7.4533 0.331067 7.42433 0.338572C7.34858 0.358817 7.27388 0.381332 7.19849 0.403148C7.10878 0.429327 7.01977 0.455681 6.92971 0.484304C6.85379 0.508913 6.77909 0.535092 6.70439 0.561097C6.61695 0.591989 6.52934 0.622706 6.44277 0.655518C6.36808 0.684141 6.29442 0.71381 6.22042 0.744179C6.13543 0.779957 6.05026 0.815736 5.96631 0.85134C5.89266 0.883628 5.81988 0.917486 5.74692 0.95152C5.66437 0.99044 5.58217 1.03006 5.50066 1.07125C5.42911 1.10772 5.35755 1.14507 5.28617 1.18312C5.20606 1.22605 5.12665 1.27004 5.04776 1.31506C4.9762 1.35503 4.90587 1.39605 4.83693 1.43793C4.75926 1.48471 4.68247 1.53305 4.60602 1.58087C4.53726 1.62485 4.46902 1.66919 4.40148 1.71491C4.32608 1.7657 4.25173 1.81858 4.17773 1.87146C4.11123 1.91911 4.04509 1.96658 3.97999 2.01458C3.90686 2.06956 3.83705 2.1268 3.7634 2.18387C3.69987 2.23466 3.63581 2.2851 3.57368 2.33763C3.50213 2.39662 3.43423 2.45771 3.36529 2.5188C3.30421 2.57325 3.2426 2.62613 3.18291 2.6825C3.11502 2.74586 3.04887 2.81166 2.98255 2.87693C2.92496 2.93383 2.86631 2.99003 2.80977 3.04849C2.79947 3.05931 2.78952 3.07118 2.7787 3.08218C3.55815 3.48499 4.37949 3.80106 5.22787 4.02481C5.66908 2.61845 6.45377 1.34421 7.51124 0.317454Z" fill="black"/>
<path d="M2.98099 17.1369C3.04749 17.2023 3.11363 17.2685 3.18187 17.3322C3.24121 17.3871 3.3023 17.4393 3.36321 17.4943C3.4325 17.5559 3.50179 17.6177 3.57299 17.677C3.63478 17.7289 3.69778 17.779 3.76096 17.8292C3.83252 17.8872 3.9039 17.9448 3.97965 18.0004C4.04405 18.0488 4.1095 18.0956 4.17495 18.1436C4.24964 18.1971 4.32504 18.2507 4.40114 18.3022C4.46798 18.3472 4.53587 18.3912 4.60377 18.4345C4.68108 18.4841 4.75822 18.5328 4.83694 18.5799C4.90588 18.6214 4.97551 18.6621 5.04532 18.7019C5.12526 18.7476 5.20537 18.7919 5.28618 18.835C5.35756 18.8708 5.42912 18.9097 5.50067 18.9455C5.58288 18.9871 5.66578 19.027 5.75077 19.0665C5.82233 19.1002 5.89494 19.1333 5.96859 19.1658C6.05323 19.2033 6.13858 19.2372 6.2241 19.2729C6.29775 19.303 6.37105 19.3326 6.4454 19.3609C6.53214 19.3942 6.62011 19.4253 6.70807 19.4557C6.78242 19.4817 6.85677 19.5079 6.93216 19.5321C7.02152 19.5611 7.11088 19.5876 7.20268 19.614C7.27703 19.6358 7.35173 19.6579 7.42678 19.678C7.45575 19.6859 7.48507 19.692 7.51405 19.6995C6.45605 18.672 5.67101 17.3971 5.22963 15.9899C4.38124 16.2138 3.5599 16.5299 2.78046 16.9328C2.79093 16.9435 2.80087 16.955 2.81135 16.966C2.86493 17.0239 2.9227 17.0801 2.98099 17.1369Z" fill="black"/>
<path d="M2.29471 16.3902C3.1534 15.9251 4.06392 15.5628 5.00725 15.3108C4.54475 13.7025 4.30198 12.039 4.28575 10.3656H0C0.0780147 12.5722 0.884865 14.6908 2.29471 16.3902Z" fill="black"/>
</g>
<defs>
<clipPath id="clip0">
<rect width="20" height="20" fill="white"/>
</clipPath>
</defs>
</svg>
