<svg style="fill:#2F80ED;" id="Layer_5" enable-background="new 0 0 64 64" height="512" viewBox="0 0 64 64" width="512" xmlns="http://www.w3.org/2000/svg"><circle cx="58" cy="6" r="3"/><path d="m55.418 10.26c-.577-.351-1.078-.808-1.471-1.355l-2.237 2.416c.652.239 1.241.601 1.734 1.071z"/><circle cx="33" cy="33" r="2"/><path d="m33 45c6.617 0 12-5.383 12-12s-5.383-12-12-12-12 5.383-12 12 5.383 12 12 12zm0-22c5.514 0 10 4.486 10 10s-4.486 10-10 10-10-4.486-10-10 4.486-10 10-10z"/><path d="m33 29c.685 0 1.32.189 1.884.493l2.768-2.989c-1.313-.942-2.916-1.504-4.652-1.504-4.072 0-7.436 3.06-7.931 7h4.073c.447-1.72 2-3 3.858-3z"/><path d="m33 41c4.411 0 8-3.589 8-8 0-1.956-.708-3.748-1.878-5.139l-2.763 2.984c.401.623.641 1.36.641 2.155 0 2.206-1.794 4-4 4-1.858 0-3.411-1.28-3.858-3h-4.073c.495 3.94 3.859 7 7.931 7z"/><path d="m39.436 45.42c-1.929 1.004-4.115 1.58-6.436 1.58-3.804 0-7.254-1.53-9.779-4h-16.221c-1.103 0-2-.897-2-2v-24c0-1.103.897-2 2-2h42c1.103 0 2 .897 2 2v24c0 .962-.683 1.767-1.59 1.957l3.575 3.16c.002-.039.015-.077.015-.117v-30c0-1.654-1.346-3-3-3h-44c-1.654 0-3 1.346-3 3v30c0 1.654 1.346 3 3 3h36.613c-1.234-1.396-2.369-2.675-3.177-3.58z"/><path d="m16.858 32h2.193c.516-7.253 6.567-13 13.949-13 3.308 0 6.346 1.159 8.744 3.084l4.708-5.084h-39.452v24h14.527c-1.408-2.013-2.292-4.409-2.477-7h-2.193c-.447 1.72-2 3-3.858 3-2.206 0-4-1.794-4-4s1.794-4 4-4c1.859 0 3.412 1.28 3.859 3zm2.142-7h-2v-2h2zm-8 0h-2v-2h2zm-2-4v-2h10v2zm6 4h-2v-2h2z"/><path d="m47.197 41h1.803v-23.808l-5.793 6.257c2.345 2.504 3.793 5.858 3.793 9.551 0 2.319-.576 4.503-1.578 6.431z"/><circle cx="13" cy="33" r="2"/><path d="m33 57h10l-1.5-2h-8.5z"/><path d="m12 59h32v2h-32z"/><path d="m44.355 41.157c-.886 1.229-1.964 2.308-3.193 3.194 2.424 2.719 7.231 8.175 9.358 10.591.593.672 1.448 1.058 2.348 1.058 1.727 0 3.132-1.405 3.132-3.132 0-.903-.386-1.758-1.058-2.352zm.352 4.964-1.414-1.414 1.414-1.414 1.414 1.414zm1.415 1.415 1.414-1.414 1.414 1.414-1.414 1.414zm4.171 4.171-1.343-1.343 1.414-1.414 1.343 1.343z"/><path d="m23 57v-2h-8.5l-1.5 2z"/><path d="m25 51h6v6h-6z"/></svg>