<svg style="fill:#2F80ED;" height="511pt" viewBox="0 0 511.99853 511" width="511pt" xmlns="http://www.w3.org/2000/svg"><path d="m508.699219 216.109375c-2.855469-3.546875-7.144531-5.609375-11.703125-5.609375h-421.996094c-7.03125 0-13.125 4.875-14.648438 11.746094l-59.996093 271.996094c-.984375 4.4375.101562 9.082031 2.941406 12.644531 2.855469 3.542969 8.148437 5.609375 12.703125 5.609375h420.996094c7.03125 0 13.125-4.878906 14.648437-11.75l60-271.996094c.980469-4.4375-.101562-9.082031-2.945312-12.640625zm-117.703125 221.386719c0 8.289062-6.707032 15-15 15h-119.996094c-8.292969 0-15-6.710938-15-15v-60c0-8.292969 6.707031-15 15-15h119.996094c8.292968 0 15 6.707031 15 15zm0 0"/><path d="m271 392.496094h89.996094v30h-89.996094zm0 0"/><path d="m60 183.054688v-62.554688h-45c-8.289062 0-15 6.707031-15 15v222.035156l31.070312-141.792968c3.464844-15.621094 14.578126-27.675782 28.929688-32.6875zm0 0"/><path d="m300.996094 180.496094v-50.726563c9.21875-10.550781 15-24.1875 15-39.269531 0-29.121094-40.675782-76.171875-48.835938-85.253906-5.683594-6.328125-16.640625-6.328125-22.324218 0-8.160157 9.082031-48.835938 56.132812-48.835938 85.253906 0 15.082031 5.78125 28.714844 15 39.269531v50.726563zm0 0"/><path d="m500.625 44.929688-81.09375-39.023438c-3.617188-1.742188-7.734375-1.992188-11.46875-.632812-3.75 1.304687-6.824219 4.058593-8.554688 7.648437l-68.511718 142.402344v25.171875h105.417968l-41.375-19.90625c-7.46875-3.589844-10.605468-12.554688-7.015624-20.023438 3.601562-7.441406 12.582031-10.589844 20.023437-7.015625l54.078125 26.015625 13-27.03125-54.070312-26.011718c-7.472657-3.589844-10.605469-12.554688-7.019532-20.023438 3.621094-7.457031 12.613282-10.605469 20.023438-7.015625l54.078125 26.011719 19.503906-40.542969c3.589844-7.472656.457031-16.4375-7.015625-20.023437zm0 0"/><path d="m90 180.496094h91v-40.429688c-3.992188-6.019531-7.007812-12.65625-9.472656-19.566406h-81.527344zm0 0"/><path d="m150.222656 10.519531c-4.070312-12.246093-24.375-12.246093-28.445312 0l-26.582032 79.980469h70.804688c0-6.871094 1.546875-14.054688 3.703125-21.304688zm0 0"/></svg>