<svg style="fill:#2F80ED;" height="512pt" viewBox="0 0 512 512.464" width="512pt" xmlns="http://www.w3.org/2000/svg"><path d="m272.230469 304c17.671875 0 32-14.328125 32-32v-32h-32c-22.054688 0-40-17.945312-40-40v-8h16v8c0 13.230469 10.769531 24 24 24h32v-24c0-17.671875-14.328125-32-32-32h-32c-17.671875 0-32 14.328125-32 32v72c0 17.671875 14.328125 32 32 32zm0 0"/><path d="m448.230469 352h-24v-16h16v-16h16v24c0 4.425781-3.582031 8-8 8zm0 0"/><path d="m392.230469 336h16v16h-16zm0 0"/><path d="m440.230469 288h16v16h-16zm0 0"/><path d="m440.230469 256h16v16h-16zm0 0"/><path d="m96.230469 352h-24c-4.414063 0-8-3.574219-8-8v-24h16v16h16zm0 0"/><path d="m112.230469 336h16v16h-16zm0 0"/><path d="m64.230469 288h16v16h-16zm0 0"/><path d="m64.230469 256h16v16h-16zm0 0"/><path d="m264.230469 64h-64c-2.949219 0-5.664063-1.625-7.054688-4.222656-1.390625-2.601563-1.238281-5.761719.398438-8.210938l16-24 13.3125 8.875-7.703125 11.558594h49.046875zm0 0"/><path d="m280.230469 48h16v16h-16zm0 0"/><path d="m302.886719 132.441406-13.3125-8.875 7.707031-11.566406h-49.050781v-16h64c2.953125 0 5.664062 1.625 7.058593 4.222656 1.390626 2.601563 1.238282 5.761719-.402343 8.210938zm0 0"/><path d="m216.230469 96h16v16h-16zm0 0"/><path d="m256.230469 358.382812 49.859375-33.230468-9.082032-12.113282c-7.246093 4.386719-15.703124 6.960938-24.777343 6.960938h-32c-9.070313 0-17.527344-2.574219-24.773438-6.96875l-9.082031 12.113281zm0 0"/><path d="m360.28125 352.28125-39.855469-17.464844-59.753906 39.839844c-1.34375.894531-2.894531 1.34375-4.441406 1.34375-1.542969 0-3.09375-.449219-4.4375-1.34375l-60.207031-40.136719-38.242188 15.328125c-15.253906 6.113282-25.113281 20.679688-25.113281 37.121094v117.03125c0 4.414062 3.578125 7.992188 7.984375 8l40.015625.078125v-80.078125h16v80.105469l128 .246093v-80.351562h16v80.382812l39.984375.082032h.015625c2.121093 0 4.152343-.839844 5.65625-2.335938 1.503906-1.503906 2.34375-3.542968 2.34375-5.664062v-115.542969c0-15.890625-9.398438-30.273437-23.949219-36.640625zm-96.050781 119.71875h-16v-48h16zm0-64h-16v-16h16zm0 0"/><path d="m120.230469 192.390625c0-4.421875 3.585937-8 8-8h48v-176.390625c0-4.425781-3.582031-8-8-8h-160c-4.414063 0-8 3.574219-8 8v224c0 4.425781 3.585937 8 8 8h112zm24-32.390625h-16v-16h16zm0-32h-16v-16h16zm-30.65625-83.558594 13.3125-8.875 16 24c1.792969 2.691406 1.792969 6.1875 0 8.875l-16 24-13.3125-8.875 13.042969-19.566406zm-24.933594-6.96875 15.175781 5.0625-16 48-15.175781-5.0625zm-55.066406 22.085938 16-24 13.3125 8.875-13.039063 19.566406 13.039063 19.558594-13.3125 8.875-16-24c-1.789063-2.679688-1.789063-6.1875 0-8.875zm38.65625 132.441406h-40v-16h40zm32 0h-16v-16h16zm8-32h-80v-16h80zm0-32h-80v-16h80zm0 0"/><path d="m136.230469 200.390625v39.609375c2.121093 0 4.160156-.839844 5.65625-2.34375l32-32c1.410156-1.410156 2.167969-3.289062 2.265625-5.265625zm0 0"/><path d="m512.230469 32v-24c0-4.425781-3.582031-8-8-8h-160c-4.414063 0-8 3.574219-8 8v24zm0 0"/><path d="m384.230469 128h80v-48h-80zm16-32h48v16h-48zm0 0"/><path d="m336.230469 48v184c0 4.425781 3.585937 8 8 8h160c4.417969 0 8-3.574219 8-8v-184zm32 112h32v16h-32zm80 48h-80v-16h80zm32 0h-16v-16h16zm0-32h-64v-16h64zm0-40c0 4.425781-3.582031 8-8 8h-96c-4.414063 0-8-3.574219-8-8v-64c0-4.425781 3.585937-8 8-8h96c4.417969 0 8 3.574219 8 8zm0 0"/></svg>