<?xml version="1.0"?>
<svg style="fill:#2F80ED;" xmlns="http://www.w3.org/2000/svg" viewBox="0 0 64 64" width="512" height="512"><g id="execution"><path d="M48,28H47a1,1,0,0,1-.97-.76l-.32-1.29-1.15.69a1.014,1.014,0,0,1-1.22-.15l-2.83-2.83a1.027,1.027,0,0,1-.15-1.23l.69-1.14-1.29-.32A1,1,0,0,1,39,20V16a1,1,0,0,1,.76-.97l1.29-.32-.69-1.15a1.014,1.014,0,0,1,.15-1.22l2.83-2.83a1.014,1.014,0,0,1,1.22-.15l1.15.69.32-1.29A1,1,0,0,1,47,8h1V5a1,1,0,0,0-1-1H44V5a3.009,3.009,0,0,1-3,3H23a3.009,3.009,0,0,1-3-3V4H17a1,1,0,0,0-1,1V30H48ZM22,13h4v2H22Zm0,4h2v2H22Zm8,6H22V21h8Zm6,0H32V21h4Zm0-4H26V17H36Zm0-4H28V13h8Z"/><path d="M49,36a5.971,5.971,0,0,1,1.53-4H10a4,4,0,0,0,0,8H50.53A5.971,5.971,0,0,1,49,36Zm-6,1H8V35H43Zm4,0H45V35h2Z"/><path d="M8,52a4,4,0,0,0,0,8H48.53a5.994,5.994,0,0,1,0-8Zm33,5H6V55H41Zm4,0H43V55h2Z"/><path d="M23,6H41a1,1,0,0,0,1-1V4H22V5A1,1,0,0,0,23,6Z"/><path d="M47.32,11.84a1.045,1.045,0,0,1-.59.69,1.023,1.023,0,0,1-.9-.07l-1.62-.98-1.73,1.73.98,1.62a1,1,0,0,1-.62,1.49L41,16.78v2.44l1.84.46a1,1,0,0,1,.62,1.49l-.98,1.62,1.73,1.73,1.62-.98a1.023,1.023,0,0,1,.9-.07,1.045,1.045,0,0,1,.59.69L47.78,26h2.44l.46-1.84a1.045,1.045,0,0,1,.59-.69,1.023,1.023,0,0,1,.9.07l1.62.98,1.73-1.73-.98-1.62a1,1,0,0,1,.62-1.49L57,19.22V16.78l-1.84-.46a1,1,0,0,1-.62-1.49l.98-1.62-1.73-1.73-1.62.98a1.023,1.023,0,0,1-.9.07,1.045,1.045,0,0,1-.59-.69L50.22,10H47.78ZM53,18a4,4,0,1,1-4-4A4,4,0,0,1,53,18Z"/><circle cx="49" cy="18" r="2"/><path d="M16,42a4,4,0,0,0,0,8H56.53a5.994,5.994,0,0,1,0-8Zm0,5H14V45h2Zm37,0H18V45H53Z"/></g></svg>
