<?xml version="1.0" encoding="iso-8859-1"?>
<!-- Generator: Adobe Illustrator 19.0.0, SVG Export Plug-In . SVG Version: 6.00 Build 0)  -->
<svg version="1.1" id="Capa_1" xmlns="http://www.w3.org/2000/svg" xmlns:xlink="http://www.w3.org/1999/xlink" x="0px" y="0px"
	 viewBox="0 0 512 512" style="enable-background:new 0 0 512 512;" xml:space="preserve">
<g style="fill:#2F80ED;">
	<g>
		<path d="M337.316,377.07H174.684c-47.421,0-86,38.579-86,86V512h334.633v-48.93C423.316,415.649,384.737,377.07,337.316,377.07z"
			/>
	</g>
</g>
<g style="fill:#2F80ED;">
	<g>
		<path d="M429.74,163.26C424.13,72.3,348.36,0,256,0S87.87,72.3,82.26,163.26h-0.34V292.2c0,39.19,31.87,71.06,71.06,71.06h29.57
			v-19.38v-10.62h-15.17h-14.4c-22.64,0-41.06-18.42-41.06-41.06v-3.02h26.44c-2.72-8.81-4.18-18.17-4.18-27.86v-98.06h-21.86
			C117.87,88.85,180.19,30,256,30s138.13,58.85,143.68,133.26h-21.86v98.06c0,9.69-1.46,19.05-4.18,27.86h56.44V163.26H429.74z"/>
	</g>
</g>
<g style="fill:#2F80ED;">
	<g>
		<path d="M283.13,87.59h-54.26c-35.73,0-64.69,28.96-64.69,64.69v36.94c5.03,0.16,10.04,0.11,15-0.15
			c37.68-1.86,73.14-15.12,105.61-39.55c24.6-18.5,39.58-37.86,43.63-43.42C316.76,94.65,300.77,87.59,283.13,87.59z"/>
	</g>
</g>
<g style="fill:#2F80ED;">
	<g>
		<path d="M345.05,133.5c-8.36,10.01-22.21,24.79-41.29,39.29c-37.5,28.48-80.2,44.29-124.58,46.3c-3.22,0.15-6.46,0.22-9.7,0.22
			c-1.77,0-3.53-0.02-5.3-0.07v42.08c0,9.97,2.26,19.42,6.29,27.86c10.41,21.78,32.64,36.83,58.4,36.83h54.26
			c25.76,0,47.99-15.05,58.4-36.83c4.03-8.44,6.29-17.89,6.29-27.86V152.28C347.82,145.75,346.85,139.45,345.05,133.5z"/>
	</g>
</g>
<g>
</g>
<g>
</g>
<g>
</g>
<g>
</g>
<g>
</g>
<g>
</g>
<g>
</g>
<g>
</g>
<g>
</g>
<g>
</g>
<g>
</g>
<g>
</g>
<g>
</g>
<g>
</g>
<g>
</g>
</svg>
