<svg style="fill:#2F80ED;" height="456pt" viewBox="0 -4 456 456" width="456pt" xmlns="http://www.w3.org/2000/svg"><path d="m0 288h32v32h-32zm0 0"/><path d="m48 424c0 8.835938-7.164062 16-16 16s-16-7.164062-16-16 7.164062-16 16-16 16 7.164062 16 16zm0 0"/><path d="m80 284.6875-11.3125 11.3125h-12.6875v16h16c2.121094 0 4.15625-.84375 5.65625-2.34375l16-16c1.5-1.5 2.34375-3.535156 2.34375-5.65625v-32h-16zm0 0"/><path d="m72 380.6875-13.65625 13.65625 11.3125 11.3125 16-16c1.5-1.5 2.34375-3.535156 2.34375-5.65625v-40h-16zm0 0"/><path d="m224 368c0 4.417969-3.582031 8-8 8s-8-3.582031-8-8 3.582031-8 8-8 8 3.582031 8 8zm0 0"/><path d="m216 160h-26.320312c-2.539063.003906-4.9375-1.179688-6.480469-3.199219-1.460938-2.066406-1.902344-4.6875-1.199219-7.121093 1.339844-4.433594 2.015625-9.046876 2-13.679688-.03125-24.164062-18.019531-44.535156-41.992188-47.558594-23.972656-3.023437-46.457031 12.242188-52.488281 35.636719-.554687 2.3125-2.117187 4.25-4.253906 5.289063-2.136719 1.039062-4.625 1.066406-6.785156.074218-2.027344-.949218-4.242188-1.441406-6.480469-1.441406-8.824219.027344-15.972656 7.175781-16 16 .019531 1.835938.371094 3.652344 1.039062 5.359375.859376 2.457031.46875 5.175781-1.039062 7.289063-1.511719 2.117187-3.960938 3.367187-6.558594 3.351562h-9.441406c-17.671875 0-32 14.328125-32 32s14.328125 32 32 32h176c17.671875 0 32-14.328125 32-32s-14.328125-32-32-32zm-80 0h-16v-16h16zm32 0h-16v-16h16zm0 0"/><path d="m312 336c0 4.417969-3.582031 8-8 8s-8-3.582031-8-8 3.582031-8 8-8 8 3.582031 8 8zm0 0"/><path d="m456 40c0-4.417969-3.582031-8-8-8h-8v376c0 13.253906-10.746094 24-24 24h-264v8c0 4.417969 3.582031 8 8 8h288c4.417969 0 8-3.582031 8-8zm0 0"/><path d="m416 0h-24v56c-.011719 3.527344-2.3125 6.636719-5.679688 7.679688-.753906.222656-1.535156.332031-2.320312.320312-2.683594.007812-5.183594-1.347656-6.640625-3.601562l-9.359375-14-9.359375 14c-1.921875 2.96875-5.578125 4.304687-8.960937 3.28125-3.367188-1.042969-5.667969-4.152344-5.679688-7.679688v-56h-216c-4.417969 0-8 3.582031-8 8v66.160156c5.21875-1.410156 10.59375-2.136718 16-2.160156 35.324219.046875 63.953125 28.675781 64 64 0 2.675781-.160156 5.34375-.480469 8h16.480469c26.507812 0 48 21.492188 48 48s-21.492188 48-48 48h-96v16h16v16h-16v16h16v72h8v16h-16c-4.417969 0-8-3.582031-8-8v40c0 4.417969 3.582031 8 8 8h288c4.417969 0 8-3.582031 8-8v-400c0-4.417969-3.582031-8-8-8zm-256 256h16v16h-16zm16 120h-16v-16h16zm88-32h-48c13.253906 0 24 10.746094 24 24s-10.746094 24-24 24-24-10.746094-24-24c.039062-13.238281 10.761719-23.960938 24-24h-48c-4.417969 0-8-3.582031-8-8v-48h16v40h88zm40 16c-13.253906 0-24-10.746094-24-24s10.746094-24 24-24 24 10.746094 24 24c-.039062 13.238281-10.761719 23.960938-24 24zm88-96h-128v-16h128zm0-48h-96v-16h96zm0-48h-96v-16h96zm0-48h-128v-16h128zm0 0"/><path d="m361.34375 27.558594c1.570312-2.097656 4.035156-3.332032 6.65625-3.332032s5.085938 1.234376 6.65625 3.332032l1.34375 2.042968v-29.601562h-16v29.601562zm0 0"/></svg>