<?xml version="1.0" encoding="iso-8859-1"?>
<!-- Generator: Adobe Illustrator 19.0.0, SVG Export Plug-In . SVG Version: 6.00 Build 0)  -->
<svg version="1.1" id="Capa_1" xmlns="http://www.w3.org/2000/svg" xmlns:xlink="http://www.w3.org/1999/xlink" x="0px" y="0px"
	 viewBox="0 0 512.001 512.001" style="enable-background:new 0 0 512.001 512.001;" xml:space="preserve">
<g style="fill:#2F80ED;">
	<g>
		<path d="M126.025,307.918c-1.471-3.09-3.414-5.971-5.867-8.368c-9.218-9.004-23.225-8.759-34.395-3.827
			c-6.147,2.712-11.136,7.199-14.576,12.677c-4.143,6.598-6.038,14.634-4.996,22.74c2.655,20.664,23.771,31.707,42.793,24.414
			C127.822,348.331,134.416,325.543,126.025,307.918z M104.944,349.363c-14.777,4.822-29.678-3.75-32.596-19.057
			c-1.979-10.385,2.137-20.07,9.389-26.354c14.695-7.123,33.511-7.713,39.206,11.073
			C125.154,328.914,119.381,344.652,104.944,349.363z"/>
	</g>
</g>
<g style="fill:#2F80ED;">
	<g>
		<path d="M443.241,191.005c-0.186-0.567-0.46-1.031-0.775-1.437c6.014-6.462,9.074-15.311,5.738-24.244
			c-10.872-29.116-61.112-12.236-49.688,17.372c1.24,3.215,3.314,6.164,3.79,9.577c1.133,8.119-5.876,15.749-9.297,22.51
			c-3.97,7.846-8.96,16.209-10.383,25.022c-2.647,16.395,13.898,19.856,26.881,20.382c9.092,0.368,18.106-0.748,27.176-1.008
			c7.015-0.202,15.087,1.255,20.376-4.498C470.533,240.023,447.922,205.28,443.241,191.005z M405.285,170.344
			c2.29-4.997,6.742-9.346,11.806-11.226c6.058-2.249,12.794-2.471,18.024,1.837c5.773,4.753,7.642,12.33,4.014,18.922
			c-5.229,9.504-19.784,15.186-29.311,8.664C402.933,183.828,402.426,176.581,405.285,170.344z M432.469,250.349
			c-5.617,0.296-11.216,0.776-16.845,0.839c-5.799,0.064-13.429,0.761-18.749-1.88c-8.394-4.168-5.298-11.453-2.446-18.831
			c4.445-11.501,9.343-22.787,13.75-34.317c4.96,2.86,11.016,4.088,17.339,2.904c3.368-0.631,6.655-1.931,9.681-3.704
			c5.175,14.179,16.196,29.939,15.929,45.085C450.922,252.107,440.638,249.918,432.469,250.349z"/>
	</g>
</g>
<g style="fill:#2F80ED;">
	<g>
		<path d="M504.864,205.376c-0.876-14.534,0.27-29.001,0.12-43.537c-0.09-8.688,0.858-25.174-5.298-32.414
			c-5.364-6.309-17.575-5.149-25.126-5.889c-3.414-0.334-43.495-4.474-43.809-2.588c0.205-0.897,0.23-1.886,0.014-2.955
			c-2.452-12.153-1.151-25.886-2.389-38.342c-1.22-12.281-2.042-24.499-2.525-36.826c-0.422-10.8,2.19-31.925-10.334-37.575
			c-6.458-2.913-16-2.034-22.778-2.393c-12.641-0.671-25.284-1.301-37.932-1.792c-25.444-0.989-50.925-1.47-76.38-0.642
			c-25.554,0.831-51.131,2.835-76.637,4.608c-12.893,0.897-25.781,1.944-38.614,3.494c-6.517,0.787-14.398,0.87-20.308,3.944
			c-11.763,6.117-9.853,21.878-10.251,33.069c-0.803,22.614-1.851,45.788,0.742,68.347c-0.443,0.02-0.892,0.046-1.335,0.065
			c-1.659,0.024-3.315,0.019-4.974,0.049c-31.586,0.579-64.555-0.485-95.895,3.777c-21.324,2.9-25.482,10.084-25.106,30.516
			c0.121,6.582-0.412,14.117,3.693,19.757c5.893,8.096,16.605,6.353,25.359,6.088c16.916-0.512,33.839,0.004,50.746,0.6
			c8.669,0.305,17.337,0.634,26.008,0.856c4.333,0.111,8.667,0.197,13.002,0.239c2.675,0.026,6.48-0.224,7.77,2.768
			c1.616,3.751,0.256,9.89,0.186,13.872c-0.09,5.079,0.05,10.159,0.119,15.238c0.094,6.973-0.662,13.935-0.392,20.909
			c0.347,8.935,2.788,19.363-2.484,27.409c-1.863,2.843-3.721,6.093-7.05,2.565c-2.965-3.141-1.164-11.367-1.095-15.529
			c0.045-2.724,1.529-9.418-0.32-11.637c-0.707-0.849-1.899-1.076-2.993-1.231c-14.962-2.125-30.393-0.874-44.817,3.633
			c-2.043,0.639,0.14,11.688,0.334,13.174c0.319,2.442,1.019,5.056,1.037,7.519c0.019,2.588-2.417,7.202-5.724,5.224
			c-6.484-3.878-2.921-15.397-10.332-18.326c-5.328-2.106-12.658,3.911-16.479,6.741c-4.444,3.293-14.466,8.453-16.359,14.121
			c-1.604,4.801,2.363,8.702,5.713,11.556c2.841,2.421,7.523,3.408,9.229,6.982c0.423,0.886,0.604,1.877,0.607,2.859
			c0.011,3.705-2.372,6.935-4.645,9.86c-5.558-1.782-11.115-3.564-16.673-5.345c-0.918-0.294-1.935-0.585-2.818-0.199
			c-0.904,0.395-1.38,1.373-1.781,2.275c-1.814,4.072-3.868,8.092-5.126,12.385c-1.238,4.225-1.236,9.131-1.996,13.548
			c-0.133,0.771-0.241,1.646,0.243,2.26c0.479,0.607,1.343,0.711,2.114,0.768c5.172,0.383,10.345,0.767,15.517,1.15
			c1.182,0.088,2.502,0.244,3.252,1.162c1.371,1.679-0.079,5.488-0.19,7.416c0.061-1.066-17.132,3.369-18.127,3.639
			c-0.931,0.253-1.926,0.546-2.532,1.296c-0.918,1.136-0.578,2.797-0.191,4.205c2.078,7.569,4.155,15.138,6.233,22.708
			c0.332,1.21,0.793,2.574,1.95,3.063c0.888,0.375,1.902,0.098,2.824-0.181c5.319-1.612,10.5-3.789,15.726-5.447
			c1.136-0.36,2.449-0.353,3.443,0.303c0.883,0.583,1.392,1.575,1.862,2.522c0.93,1.873,1.859,3.746,2.789,5.619
			c0.216,0.435,0.438,0.903,0.374,1.384c-0.079,0.599-0.573,1.046-1.034,1.436c-6.211,5.255-12.696,10.043-18.347,15.97
			c2.596,3.633,5.773,6.425,8.831,9.613c5.531,5.767,13.521,10.017,19.943,14.779c0.814,0.603,1.772,1.24,2.759,1.012
			c0.772-0.178,1.322-0.84,1.807-1.466c4.386-5.668,7.459-12.353,11.775-17.943c2.464,1.895,5.132,3.507,7.971,5.075
			c-1.208-0.667-6.056,19.616-5.806,21.154c0.318,1.964,16.059,2.498,17.98,2.52c9.573,0.108,19.165-0.518,28.626-2.011
			c2.253-0.356,4.825-0.994,5.811-3.051c0.796-1.66,0.233-3.621-0.34-5.371c-1.739-5.311-3.478-10.623-5.217-15.934
			c-0.02-0.059,9.004-2.623,9.63-2.814c-0.75,0.24,3.728,9.898,4.088,10.64c2.321,4.778,4.372,9.189,4.839,14.537
			c0.44,5.049,0.102,9.854-0.151,14.945c-0.62,12.491-0.51,25.011,0.09,37.501c0.522,10.856-1.351,28.606,7.989,36.595
			c10.955,9.37,34.191,6.431,47.182,5.855c22.634-1.002,45.057-2.266,67.735-2.306c46.416-0.082,92.324-0.641,138.615-4.245
			c12.874-1.002,21.841-2.457,24.312-16.719c3.152-18.196-2.757-36.413-1.176-54.66c0.064-0.741,0.16-1.532,0.645-2.096
			c0.657-0.764,1.787-0.858,2.794-0.885c7.536-0.206,17.386,0.559,23.879-4.064c6.009-4.279,6.775-12.778,7.497-19.469
			c2.279-21.092,0.918-41.482,0.176-62.56c-0.303-8.631-1.009-18.035-9.599-22.419c-3.989-2.035-8.38-2.484-12.777-2.77
			c-2.885-0.188-7.523,0.981-9.893-1.191c-1.128-1.033-1.436-2.687-1.442-4.217c-0.026-6.972-1.004-13.917-0.919-20.901
			c0.062-5.119,0.623-10.359,1.114-15.441c5.03-1.601,12.302-0.017,17.563,0.246c14.987,0.748,29.92,2.718,44.102-3.585
			c15.738-7.176,19.951-24.115,20.737-40.053C506.307,224.291,505.434,214.833,504.864,205.376z M81.175,166.742
			c-11.963-0.433-23.91-0.802-35.882-0.857c-12.775-0.059-30.961,3.812-31.587-14.372c-0.296-8.58-1.68-18.908,6.473-23.725
			c1.049-0.62,2.22-1.14,3.458-1.599c11.825-1.683,23.733-0.433,35.635-0.807c13.179-0.415,26.355-1.172,39.526-1.782
			c23.992-1.111,47.965-1.704,71.974-2.236c11.55-0.256,23.081-0.867,34.627-1.203c3.343-0.097,7.827-0.53,12.605-0.853
			c3.747-0.07,7.492-0.174,11.239-0.241c0.144-0.003,0.249-0.058,0.378-0.082c4.885,0.151,9.384,0.801,12.569,2.459
			c9.49,4.94,6.926,28.065,1.456,34.892c-5.609,7.001-15.918,7.009-24.14,7.571C173.449,167.053,127.322,168.413,81.175,166.742z
			 M144.097,399.179c-0.808,0.449-1.682,0.907-2.603,0.823c-1.563-0.142-2.555-1.75-2.995-3.257
			c-1.045-3.585-1.952-7.112-3.356-10.592c-0.531-1.315-1.544-5.096-3.08-5.575c-1.417-0.442-5.631,1.746-7.095,2.206
			c-5.087,1.6-10.174,3.2-15.261,4.799c1.623,8.305,3.246,16.611,4.869,24.916c-6,0.967-12.091,1.362-18.166,1.185
			c-1.265-0.037-14.113-1.728-14.258-0.505c0.701-5.892,1.402-11.784,2.103-17.676c0.147-1.236,0.286-2.533-0.179-3.687
			c-0.946-2.341-3.767-3.099-5.701-4.377c-2.17-1.434-4.295-3.051-6.446-4.548c-0.567-0.395-3.706-3.394-4.142-3.394
			c-5.02,6.879-9.836,13.907-14.438,21.073c-1.41-1.059-16.683-12.523-16.372-12.968c2.376-3.4,4.606-6.568,7.518-9.496
			c0.834-0.838,8.605-7.489,8.411-8.051c-1.718-4.99-3.335-9.893-5.63-14.61c-0.502-1.032-2.968-8.423-4.032-8.599
			c-7.17,2.603-14.339,5.205-21.509,7.808c-1.599-4.84-3.074-9.6-4.192-14.574c6.038-1.949,12.421-2.822,18.76-2.565
			c0.152-1.77,1.796-23.344,2.382-23.275c-7.302-0.859-14.604-1.718-21.906-2.577c0.872-3.224,1.635-12.949,5.492-14.043
			c1.013-0.287,2.091-0.025,3.111,0.237c6.37,1.637,12.74,3.274,19.11,4.911c2.867-5.944,5.515-11.918,8.425-17.829
			c0.515-1.046,1.043-2.218,0.717-3.338c-0.238-0.815-0.886-1.433-1.508-2.01c-3.192-2.961-7.128-5.805-9.871-9.181
			c-2.03-2.498-3.687-5.308-5.869-7.752c5.836-4.694,12.002-8.976,18.438-12.805c1.408,3.223,3.032,6.35,4.858,9.356
			c1.358,2.235,3.032,6.003,5.024,7.685c4.799,4.051,15.449-0.164,17.401-5.805c0.791-2.287,0.556-4.786,0.31-7.194
			c-0.411-4.033-0.822-8.067-1.233-12.1c-0.09-0.885-0.151-1.875,0.415-2.561c0.527-0.64,1.426-0.8,2.247-0.919
			c9.765-1.41,19.571-2.633,29.447-1.778c-0.146,8.943,0.194,17.774-0.005,26.676c6.578,1.727,13.157,3.454,19.735,5.181
			c2.591-6.675,6.05-12.26,9.661-18.383c6.58,3.669,12.685,8.189,18.116,13.412c-3.35,3.162-6.474,6.571-9.76,9.728
			c-2.416,2.322-6.391,3.49-7.394,7.028c-0.584,2.061,0.179,4.241,0.978,6.228c2.257,5.612,4.889,11.072,7.873,16.334
			c5.391-1.886,11.189-2.564,16.376-4.72c1.963-0.816,4.46-1.299,6.026,0.138c0.681,0.625,1.051,1.512,1.36,2.384
			c1.084,3.062,1.652,6.279,2.215,9.479c0.012,0.478-8.105,2.093-8.766,2.254c-4.682,1.141-9.506,2.631-13.672,5.124
			c0.422,5.473,0.843,10.946,1.265,16.419c0.048,0.625,0.116,1.299,0.531,1.769c0.497,0.563,1.326,0.657,2.074,0.713
			c5.49,0.411,10.437,1.748,15.776,3.165c0.662,0.176,1.381,0.39,1.767,0.956c0.48,0.705,0.254,1.653,0.009,2.471
			c-1.049,3.509-2.097,7.018-3.146,10.528c-3.713-0.535-7.437-1.273-11.038-2.335c-2.753-0.812-4.911-2.605-7.786-3.087
			c-2.422-0.406-4.54,0.616-5.353,3.04c-1.802,5.371-6.948,13.173-5.303,19.057c0.684,2.448,3.602,4.098,5.325,5.885
			c2.84,2.946,5.67,5.904,8.504,8.856c0.924,0.962,1.921,2.16,1.644,3.465c-0.22,1.034-1.171,1.724-2.054,2.305
			C153.642,393.64,148.92,396.5,144.097,399.179z M146.911,406.94c2.775-1.564,5.351-3.594,7.148-4.925
			c5.178-3.835,12.761-6.901,15.834-12.914c2.314-4.528-0.585-6.059-3.935-8.886c-3.893-3.284-7.885-6.45-11.97-9.492
			c1.508-3.969,3.017-7.938,4.525-11.907c5.246,1.071,12.189,3.786,17.596,2.396c4.873-1.253,7.11-5.987,8.285-10.484
			c1.349-5.166,4.713-11.738,1.18-16.858c-3.557-5.156-13.673-3.521-18.982-3.726c-0.762-0.029-1.612-0.098-2.121-0.665
			c-0.437-0.487-0.487-1.197-0.516-1.851c-0.109-2.495-0.218-4.99-0.327-7.485c-0.028-0.64,18.728-2.626,20.661-2.814
			c0.936-0.091,1.96-0.223,2.601-0.911c0.816-0.876,0.663-2.249,0.442-3.426c-1.442-7.649-3.59-15.165-6.408-22.422
			c-0.399-1.027-0.917-2.156-1.95-2.538c-0.732-0.271-1.545-0.091-2.304,0.092c-5.911,1.421-11.894,2.335-17.808,3.805
			c-0.777,0.193-1.674,0.365-2.319-0.11c-0.36-0.266-0.565-0.686-0.758-1.09c-1.444-3.033-2.887-6.065-4.331-9.097
			c0.026,0.055,12.216-8.02,13.328-8.727c3.646-2.316,7.241-5.814,5.634-10.626c-1.656-4.958-6.806-8.484-11.031-11.101
			c-3.176-1.967-9.418-2.938-11.343-6.191c-0.616-1.04-0.765-2.284-0.874-3.488c-0.935-10.308-0.527-20.854-0.873-31.206
			c-0.385-11.476-0.507-23.274-2.838-34.562c27.003-0.35,54.105-1.342,81.007-3.482c15.808-1.258,28.525-6.504,31.816-23.436
			c1.608-8.273,1.703-19.693-2.019-27.522c-3.751-7.889-9.815-8.753-17.88-9.428c-30.544-2.555-62.434-0.07-93.372,1.548
			c2.011-17.906,1.682-36.044,2.163-54.04c0.249-9.319-0.191-19.194,1.141-28.416c1.35-9.347,8.312-8.274,16.862-9.316
			c40.671-4.955,82.425-7.406,123.383-8.292c20.02-0.434,40.048-0.115,60.059,0.57c9.982,0.343,19.96,0.779,29.936,1.267
			c8.858,0.432,21.859-1.187,30.311,1.614c5.062,1.678,2.543-0.837,4.62,5.762c1.187,3.774,0.689,8.749,0.883,12.644
			c0.465,9.311,0.575,18.637,1.265,27.937c0.819,11.028,2.446,21.995,3.086,33.036c0.482,8.317-0.374,16.426,1.093,24.629
			c-3.58-0.045-7.138-0.101-10.64-0.205c-15.483-0.46-43.335-5.606-54.785,8.485c-5.538,6.816-6.38,16.635-6.775,25.032
			c-0.659,13.992-0.638,28.099-0.285,42.096c0.368,14.548,0.173,28.886-0.181,43.417c-0.209,8.558-0.539,20.458,5.694,27.378
			c5.576,6.191,14.819,6.092,22.445,6.826c11.713,1.126,23.491,1.715,35.221,2.697c-1.79-0.15,3.443,38.659-1.633,41.637
			c-1.1,0.645-2.428,0.731-3.701,0.794c-16.266,0.798-40.155-5.435-53.812,6.186c-11.49,9.777-6.131,33.008-6.222,45.776
			c-0.078,10.865-0.122,21.815-0.624,32.668c-0.263,5.714-1.697,12.511,2.323,17.338c6.665,8.004,24.312,5.572,33.525,6.499
			c9.749,0.981,20.016,2.129,30.303,2.712c-0.633,3.721-0.783,7.518-0.715,11.341c-6.416-0.356-12.621,0.677-19.208,1.11
			c-12.463,0.819-25.136,0.337-37.623,0.556c-24.398,0.427-48.77,0.719-73.171,0.381c-23.817-0.329-47.631-0.854-71.45-1.003
			c-18.499-0.116-38.451-3.045-57.077-1.024C148.953,429.95,148.374,418.427,146.911,406.94z M405.583,490.206
			c-5.72,2.849-17.064,1.417-23.573,1.957c-37.788,3.138-75.671,2.765-113.559,2.8c-17.679,0.016-35.378-0.161-53.031,0.916
			c-17.24,1.053-34.862,3.093-52.091,0.891c-9.932-1.269-10.823-5.129-11.685-14.544c-0.83-9.06-1.305-18.122-1.686-27.211
			c-0.11-2.623-0.209-5.242-0.309-7.863c41.861,1.857,83.605,3.203,125.549,3.991c23.426,0.44,46.826,0.375,70.252,0.067
			c11.334-0.149,22.67-0.184,34.005-0.287c9.365-0.085,19.559-2.3,28.928-1.154c0.507,6.047,1.266,12.099,1.503,17.991
			C410.16,474.583,412.448,486.788,405.583,490.206z M447.56,338.86c1.491,6.453,0.762,15.034,1.102,21.698
			c0.756,14.854,3.218,35.743-1.779,50.028c-5.805,16.597-41.464,9.69-55.265,8.607c-7.902-0.62-15.778-1.719-23.685-2.212
			c-9.236-0.577-14.798,0.607-16.356-10.521c-2.344-16.755,0.627-35.408-0.018-52.429c-0.142-3.741-0.884-8.267-0.011-11.977
			c3.065-13.021,8.501-13.185,18.685-14.403c7.905-0.946,15.823-0.65,23.755-0.515c2.622,0.045,5.247,0.014,7.873-0.047
			c5.739,0.235,11.488,0.493,17.275,0.623C429.887,327.954,444.709,326.518,447.56,338.86z M492.105,254.219
			c-8.642,17.818-33.21,14.767-49.637,13.475c-19.641-1.544-39.307-1.162-58.955-2.535c-4.9-0.343-11.997,0.184-16.583-1.51
			c-9.956-3.679-12.251-10.273-12.516-19.579c-0.277-9.692,0.733-19.401,0.541-29.112c-0.414-20.902-1.606-42.016-0.062-62.902
			c1.08-14.606,7.129-20.75,18.852-22.415c20.379,2.805,41.688,1.585,62.188,2.368c10.747,0.411,21.484,1.005,32.23,1.444
			c5.774,0.235,11.835-0.057,17.536,0.878c6.888,1.131,7.356,2.619,8.444,9.307c3.377,20.762-0.077,42.248,1.236,63.174
			C496.327,221.937,498.967,240.074,492.105,254.219z"/>
	</g>
</g>
<g style="fill:#2F80ED;">
	<g>
		<path d="M425.036,396.417c-6.687-4.458-11.568-10.409-16.408-16.631c7.137-10.142,8.776-24.745,1.225-34.862
			c-15.37-20.594-42.9-2.092-46.371,17.983c-3.843,22.231,22.96,37.204,39.552,24.139c4.848,6.713,10.258,12.74,17.273,17.462
			C425.319,407.881,430.039,399.752,425.036,396.417z M395.197,381.367c-10.924,5.928-22.45-1.776-23.568-13.431
			c-0.242-2.522-0.046-4.949,0.487-7.263c0.005-0.016,0.009-0.033,0.014-0.048c3.817-11.592,20.146-23.251,30.468-11.37
			C410.545,358.4,405.172,375.953,395.197,381.367z"/>
	</g>
</g>
<g style="fill:#2F80ED;">
	<g>
		<path d="M294.637,461.618c-5.048-6.702-14.737-6.454-21.738-3.341c-5.627,2.503-10.531,7.199-12.323,13.208
			c-5.128,17.192,16.841,23.486,28.369,15.038C296.44,481.029,300.766,469.758,294.637,461.618z M278.275,482.856
			c-4.234,0.868-8.365-0.584-10.246-4.696c-0.71-1.554-0.828-3.229-0.525-4.886c1.328-3.494,3.991-6.38,7.78-8.061
			c4.104-1.819,11.375-2.823,13.736,2.179C292.357,474.46,284.558,481.566,278.275,482.856z"/>
	</g>
</g>
<g style="fill:#2F80ED;">
	<g>
		<path d="M227.798,76.284c-0.164-12.286-0.643-24.568-1.436-36.829c-0.109-1.692-0.296-3.547-1.508-4.733
			c-1.309-1.28-3.347-1.338-5.178-1.317c-8.464,0.098-16.877,0.496-25.28,0.717c-7.622,0.2-15.244,0.4-22.867,0.6
			c-1.696,0.044-3.468,0.109-4.95,0.935c-1.972,1.1-3.048,3.386-3.271,5.633c-0.27,2.722,0.238,5.301-0.072,8.021
			c-0.343,3.013-0.107,6.08-0.267,9.106c-0.66,12.488,1.608,24.936,0.752,37.329c-0.069,1.005-0.16,2.027,0.051,3.012
			c0.896,4.185,8.345,2.37,11.382,2.29c15.37-0.409,30.736-1.132,46.104-1.636c1.764-0.044,3.698-0.154,4.99-1.356
			c1.441-1.341,1.565-3.542,1.583-5.51C227.882,87.125,227.87,81.704,227.798,76.284z M221.404,88.794
			c-0.19,0.442-0.434,0.861-0.743,1.249c-1.651,2.076-4.604,2.542-7.256,2.496c-4.035-0.07-7.777,0.62-11.763,0.64
			c-9.433,0.046-18.896,0.907-28.363,0.12c-1.271-6.862-1.219-13.446-0.997-20.326c0.332-10.28-0.321-20.522-0.252-30.764
			c0.036-0.69,16.267-1.349,17.392-1.417c4.566-0.274,9.135-0.51,13.707-0.636c3.709-0.102,9.816-1.581,12.397,1.685
			c1.565,1.98,1.924,4.626,2.226,7.132c1.34,11.104,2.681,22.208,4.021,33.312C222.036,84.46,222.242,86.847,221.404,88.794z"/>
	</g>
</g>
<g style="fill:#2F80ED;">
	<g>
		<path d="M305.798,76.284c-0.164-12.286-0.643-24.568-1.436-36.829c-0.109-1.692-0.296-3.547-1.508-4.733
			c-1.309-1.28-3.347-1.338-5.177-1.317c-8.464,0.098-16.877,0.496-25.28,0.717c-7.622,0.2-15.245,0.4-22.867,0.6
			c-1.696,0.044-3.468,0.109-4.95,0.935c-1.972,1.1-3.048,3.386-3.271,5.633c-0.27,2.722,0.238,5.301-0.072,8.021
			c-0.343,3.013-0.107,6.08-0.267,9.106c-0.66,12.488,1.608,24.936,0.752,37.329c-0.069,1.005-0.16,2.027,0.051,3.012
			c0.896,4.185,8.345,2.37,11.382,2.29c15.37-0.409,30.736-1.132,46.104-1.636c1.764-0.044,3.698-0.154,4.99-1.356
			c1.441-1.341,1.565-3.542,1.583-5.51C305.882,87.125,305.87,81.704,305.798,76.284z M299.404,88.794
			c-0.19,0.442-0.434,0.861-0.743,1.249c-1.651,2.076-4.604,2.542-7.256,2.496c-4.035-0.07-7.777,0.62-11.763,0.64
			c-9.433,0.046-18.896,0.907-28.363,0.12c-1.271-6.862-1.219-13.446-0.997-20.326c0.332-10.28-0.321-20.522-0.252-30.764
			c0.036-0.69,16.267-1.349,17.392-1.417c4.565-0.274,9.135-0.51,13.707-0.636c3.709-0.102,9.816-1.581,12.397,1.685
			c1.565,1.98,1.924,4.626,2.226,7.132c1.34,11.104,2.681,22.208,4.021,33.312C300.036,84.46,300.242,86.847,299.404,88.794z"/>
	</g>
</g>
<g style="fill:#2F80ED;">
	<g>
		<path d="M383.798,76.284c-0.164-12.286-0.643-24.568-1.436-36.829c-0.109-1.692-0.296-3.547-1.508-4.733
			c-1.309-1.28-3.347-1.338-5.177-1.317c-8.464,0.098-16.877,0.496-25.28,0.717c-7.622,0.2-15.245,0.4-22.867,0.6
			c-1.696,0.044-3.468,0.109-4.95,0.935c-1.972,1.1-3.048,3.386-3.271,5.633c-0.27,2.722,0.238,5.301-0.072,8.021
			c-0.343,3.013-0.107,6.08-0.267,9.106c-0.66,12.488,1.608,24.936,0.752,37.329c-0.069,1.005-0.16,2.027,0.051,3.012
			c0.896,4.185,8.345,2.37,11.382,2.29c15.37-0.409,30.736-1.132,46.104-1.636c1.764-0.044,3.698-0.154,4.99-1.356
			c1.441-1.341,1.565-3.542,1.583-5.51C383.882,87.125,383.87,81.704,383.798,76.284z M377.404,88.794
			c-0.19,0.442-0.434,0.861-0.743,1.249c-1.651,2.076-4.604,2.542-7.256,2.496c-4.035-0.07-7.777,0.62-11.763,0.64
			c-9.433,0.046-18.896,0.907-28.363,0.12c-1.271-6.862-1.219-13.446-0.997-20.326c0.332-10.28-0.321-20.522-0.252-30.764
			c0.036-0.69,16.267-1.349,17.392-1.417c4.565-0.274,9.135-0.51,13.707-0.636c3.709-0.102,9.816-1.581,12.397,1.685
			c1.565,1.98,1.924,4.626,2.226,7.132c1.34,11.104,2.681,22.208,4.021,33.312C378.036,84.46,378.242,86.847,377.404,88.794z"/>
	</g>
</g>
<g style="fill:#2F80ED;">
	<g>
		<path d="M242.798,237.784c-0.164-12.286-0.643-24.568-1.436-36.829c-0.109-1.692-0.296-3.547-1.508-4.733
			c-1.309-1.28-3.347-1.338-5.178-1.317c-8.464,0.098-16.877,0.496-25.28,0.717c-7.622,0.2-15.244,0.4-22.867,0.6
			c-1.696,0.045-3.468,0.109-4.95,0.935c-1.972,1.1-3.048,3.386-3.271,5.633c-0.27,2.722,0.238,5.301-0.072,8.021
			c-0.343,3.013-0.107,6.08-0.267,9.106c-0.66,12.488,1.608,24.936,0.752,37.329c-0.069,1.005-0.16,2.027,0.051,3.012
			c0.896,4.185,8.345,2.371,11.382,2.29c15.37-0.409,30.736-1.132,46.104-1.636c1.764-0.044,3.698-0.154,4.99-1.356
			c1.441-1.341,1.565-3.542,1.583-5.51C242.882,248.625,242.87,243.204,242.798,237.784z M236.404,250.294
			c-0.19,0.442-0.434,0.861-0.743,1.249c-1.651,2.076-4.604,2.542-7.256,2.496c-4.035-0.07-7.777,0.62-11.763,0.64
			c-9.433,0.046-18.896,0.907-28.363,0.12c-1.271-6.862-1.219-13.445-0.997-20.326c0.332-10.28-0.321-20.521-0.252-30.764
			c0.036-0.69,16.267-1.349,17.392-1.417c4.566-0.274,9.135-0.51,13.707-0.636c3.709-0.102,9.816-1.581,12.397,1.685
			c1.565,1.98,1.924,4.626,2.226,7.132c1.34,11.104,2.681,22.208,4.021,33.312C237.036,245.96,237.242,248.347,236.404,250.294z"/>
	</g>
</g>
<g style="fill:#2F80ED;">
	<g>
		<path d="M321.298,237.784c-0.164-12.286-0.643-24.568-1.436-36.829c-0.109-1.692-0.296-3.547-1.508-4.733
			c-1.309-1.28-3.347-1.338-5.177-1.317c-8.464,0.098-16.877,0.496-25.28,0.717c-7.622,0.2-15.245,0.4-22.867,0.6
			c-1.696,0.045-3.468,0.109-4.95,0.935c-1.972,1.1-3.048,3.386-3.271,5.633c-0.27,2.722,0.238,5.301-0.072,8.021
			c-0.343,3.013-0.107,6.08-0.267,9.106c-0.66,12.488,1.608,24.936,0.752,37.329c-0.069,1.005-0.16,2.027,0.051,3.012
			c0.896,4.185,8.345,2.371,11.382,2.29c15.37-0.409,30.736-1.132,46.104-1.636c1.764-0.044,3.698-0.154,4.99-1.356
			c1.441-1.341,1.565-3.542,1.583-5.51C321.382,248.625,321.37,243.204,321.298,237.784z M314.904,250.294
			c-0.19,0.442-0.434,0.861-0.743,1.249c-1.651,2.076-4.604,2.542-7.256,2.496c-4.035-0.07-7.777,0.62-11.763,0.64
			c-9.433,0.046-18.896,0.907-28.363,0.12c-1.271-6.862-1.219-13.445-0.997-20.326c0.332-10.28-0.321-20.521-0.252-30.764
			c0.036-0.69,16.267-1.349,17.392-1.417c4.565-0.274,9.135-0.51,13.707-0.636c3.709-0.102,9.816-1.581,12.397,1.685
			c1.565,1.98,1.924,4.626,2.226,7.132c1.34,11.104,2.681,22.208,4.021,33.312C315.536,245.96,315.742,248.347,314.904,250.294z"/>
	</g>
</g>
<g style="fill:#2F80ED;">
	<g>
		<path d="M321.798,319.284c-0.164-12.286-0.643-24.568-1.436-36.829c-0.109-1.692-0.296-3.547-1.508-4.733
			c-1.309-1.28-3.347-1.338-5.177-1.317c-8.464,0.099-16.877,0.496-25.28,0.717c-7.622,0.2-15.245,0.4-22.867,0.6
			c-1.696,0.044-3.468,0.109-4.95,0.935c-1.972,1.1-3.048,3.386-3.271,5.633c-0.27,2.722,0.238,5.301-0.072,8.021
			c-0.343,3.013-0.107,6.08-0.267,9.106c-0.66,12.488,1.608,24.936,0.752,37.329c-0.069,1.005-0.16,2.027,0.051,3.012
			c0.896,4.185,8.345,2.371,11.382,2.29c15.37-0.409,30.736-1.132,46.104-1.636c1.764-0.044,3.698-0.154,4.99-1.356
			c1.441-1.341,1.565-3.542,1.583-5.51C321.882,330.125,321.87,324.704,321.798,319.284z M315.404,331.794
			c-0.19,0.442-0.434,0.861-0.743,1.249c-1.651,2.076-4.604,2.542-7.256,2.496c-4.035-0.07-7.777,0.62-11.763,0.64
			c-9.433,0.046-18.896,0.907-28.363,0.12c-1.271-6.862-1.219-13.445-0.997-20.326c0.332-10.28-0.321-20.521-0.252-30.764
			c0.036-0.69,16.267-1.349,17.392-1.417c4.565-0.274,9.135-0.51,13.707-0.636c3.709-0.102,9.816-1.581,12.397,1.685
			c1.565,1.98,1.924,4.626,2.226,7.132c1.34,11.104,2.681,22.208,4.021,33.312C316.036,327.46,316.242,329.847,315.404,331.794z"/>
	</g>
</g>
<g style="fill:#2F80ED;">
	<g>
		<path d="M321.798,399.784c-0.164-12.286-0.643-24.568-1.436-36.829c-0.109-1.692-0.296-3.547-1.508-4.733
			c-1.309-1.28-3.347-1.338-5.177-1.317c-8.464,0.099-16.877,0.496-25.28,0.717c-7.622,0.2-15.245,0.4-22.867,0.6
			c-1.696,0.044-3.468,0.109-4.95,0.935c-1.972,1.1-3.048,3.386-3.271,5.633c-0.27,2.722,0.238,5.301-0.072,8.021
			c-0.343,3.013-0.107,6.08-0.267,9.106c-0.66,12.488,1.608,24.936,0.752,37.329c-0.069,1.005-0.16,2.027,0.051,3.012
			c0.896,4.185,8.345,2.371,11.382,2.29c15.37-0.409,30.736-1.132,46.104-1.636c1.764-0.044,3.698-0.154,4.99-1.356
			c1.441-1.341,1.565-3.542,1.583-5.51C321.882,410.625,321.87,405.204,321.798,399.784z M315.404,412.294
			c-0.19,0.442-0.434,0.861-0.743,1.249c-1.651,2.076-4.604,2.542-7.256,2.496c-4.035-0.07-7.777,0.62-11.763,0.64
			c-9.433,0.046-18.896,0.907-28.363,0.12c-1.271-6.862-1.219-13.445-0.997-20.326c0.332-10.28-0.321-20.521-0.252-30.764
			c0.036-0.69,16.267-1.349,17.392-1.417c4.565-0.274,9.135-0.51,13.707-0.636c3.709-0.102,9.816-1.581,12.397,1.685
			c1.565,1.98,1.924,4.626,2.226,7.132c1.34,11.104,2.681,22.208,4.021,33.312C316.036,407.96,316.242,410.347,315.404,412.294z"/>
	</g>
</g>
<g>
</g>
<g>
</g>
<g>
</g>
<g>
</g>
<g>
</g>
<g>
</g>
<g>
</g>
<g>
</g>
<g>
</g>
<g>
</g>
<g>
</g>
<g>
</g>
<g>
</g>
<g>
</g>
<g>
</g>
</svg>
