<svg style="fill:#2F80ED;" id="Layer_1" enable-background="new 0 0 511.997 511.997" height="512" viewBox="0 0 511.997 511.997" width="512" xmlns="http://www.w3.org/2000/svg"><g><path d="m511.997 400.379v-365.094h-511.997v365.095h182.511l-9.105 46.333h-22.664v30h210.535v-30h-22.663l-9.105-46.333h182.488zm-30-335.094v249.091h-451.997v-249.091zm-451.997 279.09h451.997v26.004h-451.997zm278.04 102.337h-104.061l9.105-46.333h85.85z"/><path d="m95.945 236.097h117.834l18.312-97.072h-123.922l-8.273-43.856h-42.22v30h17.349zm99.957-67.072-6.993 37.072h-68.094l-6.993-37.072z"/><path d="m171.994 254.766h30v30.002h-30z"/><path d="m107.729 254.766h30v30.002h-30z"/><path d="m301.01 112.557h153.021v30h-153.021z"/><path d="m301.01 172.561h153.021v30h-153.021z"/><path d="m301.01 232.565h153.021v30h-153.021z"/></g></svg>