<svg width="34" height="39" viewBox="0 0 34 39" fill="none" xmlns="http://www.w3.org/2000/svg">
<g filter="url(#filter0_d)">
<path d="M28.25 12.917C28.25 21.9587 17 29.7087 17 29.7087C17 29.7087 5.75 21.9587 5.75 12.917C5.75 9.83385 6.93526 6.87699 9.04505 4.69688C11.1548 2.51677 14.0163 1.29199 17 1.29199C19.9837 1.29199 22.8452 2.51677 24.9549 4.69688C27.0647 6.87699 28.25 9.83385 28.25 12.917Z" fill="#2F80ED" stroke="white" stroke-width="2" stroke-linecap="round" stroke-linejoin="round"/>
<path d="M17 16.792C19.0711 16.792 20.75 15.0571 20.75 12.917C20.75 10.7769 19.0711 9.04199 17 9.04199C14.9289 9.04199 13.25 10.7769 13.25 12.917C13.25 15.0571 14.9289 16.792 17 16.792Z" fill="white" stroke="#2F80ED" stroke-width="3" stroke-linecap="round" stroke-linejoin="round"/>
</g>
<defs>
<filter id="filter0_d" x="-2" y="0" width="38" height="39" filterUnits="userSpaceOnUse" color-interpolation-filters="sRGB">
<feFlood flood-opacity="0" result="BackgroundImageFix"/>
<feColorMatrix in="SourceAlpha" type="matrix" values="0 0 0 0 0 0 0 0 0 0 0 0 0 0 0 0 0 0 127 0"/>
<feOffset dy="4"/>
<feGaussianBlur stdDeviation="2"/>
<feColorMatrix type="matrix" values="0 0 0 0 0 0 0 0 0 0 0 0 0 0 0 0 0 0 0.25 0"/>
<feBlend mode="normal" in2="BackgroundImageFix" result="effect1_dropShadow"/>
<feBlend mode="normal" in="SourceGraphic" in2="effect1_dropShadow" result="shape"/>
</filter>
</defs>
</svg>
