<svg width="31" height="32" viewBox="0 0 31 32" fill="none" xmlns="http://www.w3.org/2000/svg">
<g filter="url(#filter0_d)">
<path d="M25.9165 17.6253V20.7503C25.9177 21.0404 25.8582 21.3275 25.742 21.5933C25.6258 21.8591 25.4553 22.0978 25.2416 22.2939C25.0278 22.49 24.7754 22.6393 24.5006 22.7323C24.2258 22.8252 23.9346 22.8597 23.6457 22.8336C20.4403 22.4853 17.3613 21.39 14.6561 19.6357C12.1392 18.0364 10.0054 15.9025 8.40608 13.3857C6.64564 10.6682 5.55008 7.57422 5.20816 4.35443C5.18213 4.06638 5.21636 3.77606 5.30868 3.50196C5.401 3.22786 5.54938 2.97598 5.74438 2.76237C5.93937 2.54876 6.17671 2.37809 6.44128 2.26122C6.70585 2.14436 6.99185 2.08387 7.28108 2.0836H10.4061C10.9116 2.07862 11.4017 2.25764 11.785 2.58728C12.1683 2.91692 12.4187 3.37469 12.4894 3.87526C12.6213 4.87533 12.8659 5.85727 13.2186 6.80235C13.3587 7.17518 13.3891 7.58038 13.306 7.96993C13.2229 8.35948 13.0299 8.71705 12.7498 9.00026L11.4269 10.3232C12.9098 12.931 15.0691 15.0903 17.6769 16.5732L18.9998 15.2503C19.283 14.9702 19.6406 14.7772 20.0302 14.6941C20.4197 14.611 20.8249 14.6414 21.1977 14.7815C22.1428 15.1342 23.1248 15.3788 24.1248 15.5107C24.6308 15.5821 25.093 15.8369 25.4233 16.2268C25.7536 16.6167 25.9292 17.1144 25.9165 17.6253Z" fill="#2F80ED" stroke="#2F80ED" stroke-width="2" stroke-linecap="round" stroke-linejoin="round"/>
</g>
<defs>
<filter id="filter0_d" x="-1" y="0" width="33" height="33" filterUnits="userSpaceOnUse" color-interpolation-filters="sRGB">
<feFlood flood-opacity="0" result="BackgroundImageFix"/>
<feColorMatrix in="SourceAlpha" type="matrix" values="0 0 0 0 0 0 0 0 0 0 0 0 0 0 0 0 0 0 127 0"/>
<feOffset dy="4"/>
<feGaussianBlur stdDeviation="2"/>
<feColorMatrix type="matrix" values="0 0 0 0 0 0 0 0 0 0 0 0 0 0 0 0 0 0 0.25 0"/>
<feBlend mode="normal" in2="BackgroundImageFix" result="effect1_dropShadow"/>
<feBlend mode="normal" in="SourceGraphic" in2="effect1_dropShadow" result="shape"/>
</filter>
</defs>
</svg>
